# xmcd
#
# Track frame offsets:
#	150
#	9706
#	19427
#	28905
#	37532
#	51090
#	59333
#	69949
#	78643
#	88140
#	98063
#	108176
#	118441
#	126652
#
# Disc length: 1805 seconds
#
# Revision: 1
# Processed by: cddbd v1.5.1PL2 Copyright (c) Steve Scherf et al.
# Submitted via: audiograbber 1.83.01
#
DISCID=bf070b0e
DTITLE=Diverse Interpreten - Traumreise
DYEAR=1900
DGENRE=
TTITLE0=A media Luz
TTITLE1=Be My Hast
TTITLE2=How High The Moon
TTITLE3=Around The World
TTITLE4=Sleepy Time Gal
TTITLE5=Maracangalha
TTITLE6=Bizet Has His Day
TTITLE7=Mocking Bird
TTITLE8=Life Is Just A Bowl Of Cherries
TTITLE9=Summer Night
TTITLE10=I ll Get By
TTITLE11=It' s Wonderful
TTITLE12=The Surrey With this Fringe On Top
TTITLE13=Yes We Have No Bannanas
EXTD=
EXTT0=
EXTT1=
EXTT2=
EXTT3=
EXTT4=
EXTT5=
EXTT6=
EXTT7=
EXTT8=
EXTT9=
EXTT10=
EXTT11=
EXTT12=
EXTT13=
PLAYORDER=
